<?xml version="1.0" encoding="UTF-8" standalone="no"?>
<!-- Created with Inkscape (http://www.inkscape.org/) -->

<svg
   xmlns:dc="http://purl.org/dc/elements/1.1/"
   xmlns:cc="http://creativecommons.org/ns#"
   xmlns:rdf="http://www.w3.org/1999/02/22-rdf-syntax-ns#"
   xmlns:svg="http://www.w3.org/2000/svg"
   xmlns="http://www.w3.org/2000/svg"
   xmlns:sodipodi="http://sodipodi.sourceforge.net/DTD/sodipodi-0.dtd"
   xmlns:inkscape="http://www.inkscape.org/namespaces/inkscape"
   width="1920"
   height="1080"
   id="svg5404"
   version="1.1"
   inkscape:version="0.48.5 r10040"
   sodipodi:docname="field.svg">
  <defs
     id="defs3" />
  <sodipodi:namedview
     inkscape:document-units="mm"
     id="base"
     pagecolor="#ffffff"
     bordercolor="#666666"
     borderopacity="1.0"
     inkscape:pageopacity="0.0"
     inkscape:pageshadow="2"
     inkscape:zoom="1.8885417"
     inkscape:cx="188.55839"
     inkscape:cy="1012.9484"
     inkscape:current-layer="layer1"
     showgrid="false"
     inkscape:window-width="1366"
     inkscape:window-height="705"
     inkscape:window-x="-8"
     inkscape:window-y="-8"
     inkscape:window-maximized="1"
     units="px"
     inkscape:snap-grids="true" />
  <metadata
     id="metadata4">
    <rdf:RDF>
      <cc:Work
         rdf:about="">
        <dc:format>image/svg+xml</dc:format>
        <dc:type
           rdf:resource="http://purl.org/dc/dcmitype/StillImage" />
        <dc:title />
      </cc:Work>
    </rdf:RDF>
  </metadata>
  <g
     inkscape:label="Layer 1"
     inkscape:groupmode="layer"
     id="layer1"
     transform="translate(0,27.63782)">
    <path
       d="m 2.1180364,-25.416437 0,1080.000037 M 34.096746,-25.416437 l 0,1080.000037 m 31.978711,-1080.000037 0,1080.000037 m 31.978711,-1080.000037 0,1080.000037 m 31.978712,-1080.000037 0,1080.000037 m 31.97872,-1080.000037 0,1080.000037 m 31.9787,-1080.000037 0,1080.000037 m 31.97871,-1080.000037 0,1080.000037 m 31.97872,-1080.000037 0,1080.000037 m 31.97871,-1080.000037 0,1080.000037 m 31.9787,-1080.000037 0,1080.000037 m 31.97871,-1080.000037 0,1080.000037 m 31.97871,-1080.000037 0,1080.000037 m 31.97872,-1080.000037 0,1080.000037 M 449.82,-25.416437 l 0,1080.000037 m 31.9787,-1080.000037 0,1080.000037 m 31.97871,-1080.000037 0,1080.000037 m 31.97871,-1080.000037 0,1080.000037 m 31.97871,-1080.000037 0,1080.000037 m 31.97871,-1080.000037 0,1080.000037 m 31.97871,-1080.000037 0,1080.000037 m 31.97872,-1080.000037 0,1080.000037 m 31.9787,-1080.000037 0,1080.000037 m 31.97872,-1080.000037 0,1080.000037 m 31.97871,-1080.000037 0,1080.000037 m 31.9787,-1080.000037 0,1080.000037 m 31.97871,-1080.000037 0,1080.000037 m 31.97871,-1080.000037 0,1080.000037 m 31.97871,-1080.000037 0,1080.000037 m 31.97872,-1080.000037 0,1080.000037 m 31.97871,-1080.000037 0,1080.000037 m 31.97871,-1080.000037 0,1080.000037 m 31.97863,-1080.000037 0,1080.000037 m 31.9787,-1080.000037 0,1080.000037 m 31.9788,-1080.000037 0,1080.000037 m 31.9787,-1080.000037 0,1080.000037 m 31.9787,-1080.000037 0,1080.000037 m 31.9788,-1080.000037 0,1080.000037 m 31.9786,-1080.000037 0,1080.000037 m 31.9787,-1080.000037 0,1080.000037 m 31.9787,-1080.000037 0,1080.000037 m 31.9788,-1080.000037 0,1080.000037 m 31.9787,-1080.000037 0,1080.000037 m 31.9786,-1080.000037 0,1080.000037 m 31.9787,-1080.000037 0,1080.000037 m 31.9787,-1080.000037 0,1080.000037 m 31.9787,-1080.000037 0,1080.000037 m 31.9788,-1080.000037 0,1080.000037 m 31.9787,-1080.000037 0,1080.000037 m 31.9787,-1080.000037 0,1080.000037 m 31.9788,-1080.000037 0,1080.000037 m 31.9786,-1080.000037 0,1080.000037 m 31.9787,-1080.000037 0,1080.000037 m 31.9788,-1080.000037 0,1080.000037 m 31.9787,-1080.000037 0,1080.000037 m 31.9787,-1080.000037 0,1080.000037 m 31.9787,-1080.000037 0,1080.000037 m 31.9788,-1080.000037 0,1080.000037 m 31.9786,-1080.000037 0,1080.000037 m 31.9788,-1080.000037 0,1080.000037 m 31.9786,-1080.000037 0,1080.000037 M 2.1180364,-25.416437 l 1918.7225636,0 M 2.1180364,4.5835634 l 1918.7225636,0 M 2.1180364,34.583563 l 1918.7225636,0 m -1918.7225636,30 1918.7225636,0 m -1918.7225636,30 1918.7225636,0 M 2.1180364,124.58356 l 1918.7225636,0 m -1918.7225636,30 1918.7225636,0 m -1918.7225636,30 1918.7225636,0 m -1918.7225636,30 1918.7225636,0 m -1918.7225636,30 1918.7225636,0 m -1918.7225636,30 1918.7225636,0 m -1918.7225636,30 1918.7225636,0 m -1918.7225636,30 1918.7225636,0 m -1918.7225636,30 1918.7225636,0 m -1918.7225636,30 1918.7225636,0 m -1918.7225636,30 1918.7225636,0 m -1918.7225636,30 1918.7225636,0 m -1918.7225636,30 1918.7225636,0 m -1918.7225636,30 1918.7225636,0 m -1918.7225636,30 1918.7225636,0 m -1918.7225636,30 1918.7225636,0 m -1918.7225636,30 1918.7225636,0 m -1918.7225636,30 1918.7225636,0 m -1918.7225636,30 1918.7225636,0 m -1918.7225636,30 1918.7225636,0 m -1918.7225636,30 1918.7225636,0 m -1918.7225636,30 1918.7225636,0 m -1918.7225636,30 1918.7225636,0 m -1918.7225636,30 1918.7225636,0 m -1918.7225636,30 1918.7225636,0 m -1918.7225636,30 1918.7225636,0 m -1918.7225636,30 1918.7225636,0 m -1918.7225636,30 1918.7225636,0 m -1918.7225636,30 1918.7225636,0 m -1918.7225636,30 1918.7225636,0 M 2.1180364,1024.5836 l 1918.7225636,0 m -1918.7225636,30 1918.7225636,0"
       style="fill:#cdde87;stroke:#cdde87;stroke-width:0.35433071;stroke-linecap:butt;stroke-linejoin:miter;stroke-opacity:1;stroke-miterlimit:4;stroke-dasharray:none;fill-rule:nonzero"
       id="path2990"
       inkscape:connector-curvature="0" />
    <path
       style="fill:#cdde87;fill-opacity:1;fill-rule:nonzero;stroke:#cdde87;stroke-width:0.18762134000000000;stroke-miterlimit:4;stroke-opacity:1;stroke-dasharray:none"
       d="m 2.405639,17.330648 0,-14.5615005 15.620518,0 15.620519,0 0,14.5615005 0,14.5615 -15.620519,0 -15.620518,0 0,-14.5615 z"
       id="path3778"
       inkscape:connector-curvature="0"
       transform="translate(0,-27.63782)" />
  </g>
</svg>
