<?xml version="1.0" encoding="UTF-8" standalone="no"?>
<!-- Created with Inkscape (http://www.inkscape.org/) -->

<svg
   xmlns:dc="http://purl.org/dc/elements/1.1/"
   xmlns:cc="http://creativecommons.org/ns#"
   xmlns:rdf="http://www.w3.org/1999/02/22-rdf-syntax-ns#"
   xmlns:svg="http://www.w3.org/2000/svg"
   xmlns="http://www.w3.org/2000/svg"
   xmlns:sodipodi="http://sodipodi.sourceforge.net/DTD/sodipodi-0.dtd"
   xmlns:inkscape="http://www.inkscape.org/namespaces/inkscape"
   width="744.09448819"
   height="1052.3622047"
   id="svg3757"
   version="1.1"
   inkscape:version="0.48.5 r10040"
   sodipodi:docname="wizard.svg"
   inkscape:export-filename="C:\Users\Marco\Desktop\witch.png"
   inkscape:export-xdpi="20.49822"
   inkscape:export-ydpi="20.49822">
  <defs
     id="defs3759" />
  <sodipodi:namedview
     id="base"
     pagecolor="#ffffff"
     bordercolor="#666666"
     borderopacity="1.0"
     inkscape:pageopacity="0.0"
     inkscape:pageshadow="2"
     inkscape:zoom="1.4"
     inkscape:cx="370.81329"
     inkscape:cy="591.38877"
     inkscape:document-units="px"
     inkscape:current-layer="layer1"
     showgrid="false"
     inkscape:window-width="1366"
     inkscape:window-height="705"
     inkscape:window-x="-8"
     inkscape:window-y="-8"
     inkscape:window-maximized="1" />
  <metadata
     id="metadata3762">
    <rdf:RDF>
      <cc:Work
         rdf:about="">
        <dc:format>image/svg+xml</dc:format>
        <dc:type
           rdf:resource="http://purl.org/dc/dcmitype/StillImage" />
        <dc:title></dc:title>
      </cc:Work>
    </rdf:RDF>
  </metadata>
  <g
     inkscape:label="Layer 1"
     inkscape:groupmode="layer"
     id="layer1">
    <rect
       style="fill:#d9873b;fill-opacity:1;fill-rule:nonzero;stroke:#000000;stroke-width:1;stroke-miterlimit:4;stroke-opacity:1;stroke-dasharray:none"
       id="rect4277"
       width="10.714286"
       height="244.28572"
       x="343.57144"
       y="339.505"
       ry="2.0751777" />
    <g
       id="g3858"
       transform="matrix(1.3707321,0,0,1.4338114,-44.244022,-179.80467)">
      <path
         sodipodi:nodetypes="ssssssssssss"
         inkscape:connector-curvature="0"
         id="path3837"
         d="m 315.53571,461.46932 c 0,3.30757 -5.38094,-11.63278 -8.26629,-6.50494 -2.88536,5.12784 -2.73941,16.931 -3.47134,19.79701 -1.46386,5.73202 -5.90354,-20.35598 -8.52106,-16.02088 -2.61752,4.33511 -2.87718,20.34334 -6.33814,22.76777 -3.46097,2.42444 -4.05182,-25.87775 -8.04602,-25.87775 -3.9942,0 -3.87077,20.44504 -7.33174,18.0206 -3.46096,-2.42443 -3.72062,-13.43265 -6.33814,-17.76777 -2.61752,-4.3351 -5.0929,16.39576 -6.55677,10.66374 -1.46387,-5.73202 -2.27335,-12.03406 -2.27335,-18.64921 0,-26.46064 12.95176,-47.91121 28.92857,-47.91121 15.97681,0 28.21428,35.022 28.21428,61.48264 z"
         style="fill:#6c6753;fill-opacity:1;fill-rule:nonzero;stroke:#000000;stroke-width:0.65783465;stroke-miterlimit:4;stroke-opacity:1" />
      <path
         sodipodi:nodetypes="ssssssssssss"
         inkscape:connector-curvature="0"
         id="path3837-0"
         d="m 313.96041,455.6707 c 0,2.81836 -5.11093,-9.91225 -7.8515,-5.54284 -2.74057,4.36942 -2.60194,14.42684 -3.29715,16.86896 -1.39041,4.88422 -5.60731,-17.34525 -8.09349,-13.65133 -2.48618,3.69393 -2.7328,17.33448 -6.0201,19.40032 -3.28731,2.06586 -3.84851,-22.05032 -7.64228,-22.05032 -3.79378,0 -3.67654,17.42113 -6.96384,15.35528 -3.2873,-2.06585 -3.53393,-11.44592 -6.0201,-15.13985 -2.48618,-3.69391 -4.83734,13.97076 -6.22776,9.08653 -1.39041,-4.88423 -2.15927,-10.25417 -2.15927,-15.89091 0,-22.547 12.30184,-40.82494 27.47697,-40.82494 15.17511,0 26.79852,29.8421 26.79852,52.3891 z"
         style="fill:#918a6f;fill-opacity:1;fill-rule:nonzero;stroke:none" />
    </g>
    <path
       sodipodi:type="arc"
       style="fill:#002255;fill-opacity:1;fill-rule:nonzero;stroke:#000000;stroke-width:1;stroke-miterlimit:4;stroke-opacity:1;stroke-dasharray:none"
       id="path3765"
       sodipodi:cx="340.35715"
       sodipodi:cy="480.93362"
       sodipodi:rx="65.35714"
       sodipodi:ry="59.285713"
       d="m 405.71429,480.93362 a 65.35714,59.285713 0 1 1 -130.71428,0 65.35714,59.285713 0 1 1 130.71428,0 z"
       transform="matrix(0.66511682,0,0,0.66532712,121.83703,105.24115)" />
    <rect
       style="fill:#ffcc00;fill-opacity:1;fill-rule:nonzero;stroke:#aa8800;stroke-width:0.52454603;stroke-opacity:1"
       id="rect3829"
       width="2.5134785"
       height="7.2397695"
       x="321.90411"
       y="420.76474"
       ry="1.9505327" />
    <path
       sodipodi:type="arc"
       style="fill:#003380;fill-opacity:1;fill-rule:nonzero;stroke:#000000;stroke-width:1;stroke-miterlimit:4;stroke-opacity:1;stroke-dasharray:none"
       id="path4275"
       sodipodi:cx="204.28572"
       sodipodi:cy="473.79074"
       sodipodi:rx="17.142857"
       sodipodi:ry="16.428572"
       d="m 221.42858,473.79074 a 17.142857,16.428572 0 1 1 -34.28572,0 17.142857,16.428572 0 1 1 34.28572,0 z"
       transform="matrix(1.3255721,0,0,1.2092927,77.0617,-147.94156)" />
    <path
       style="fill:#003380;fill-opacity:1;fill-rule:nonzero;stroke:#000000;stroke-width:0.5;stroke-miterlimit:4;stroke-opacity:1;stroke-dasharray:none"
       d="m 355.84638,427.5889 c 0.68301,2.8347 -2.57336,2.80362 -6.20981,2.51086 -2.95207,-0.23766 -5.76699,-1.04186 -6.45,-3.87655 -0.683,-2.8347 1.09739,-5.69505 3.97662,-6.38879 2.87923,-0.69373 8.00019,4.91978 8.68319,7.75448 z"
       id="path4275-2"
       inkscape:connector-curvature="0"
       sodipodi:nodetypes="sssss" />
    <g
       id="g3900"
       transform="translate(50.892857,51.306019)">
      <path
         transform="translate(48.487322,62.124381)"
         d="m 266.17519,483.6463 c 0,8.92627 -7.68843,16.16244 -17.1726,16.16244 -9.48416,0 -17.17259,-7.23617 -17.17259,-16.16244 0,-8.92627 7.68843,-16.16244 17.17259,-16.16244 9.48417,0 17.1726,7.23617 17.1726,16.16244 z"
         sodipodi:ry="16.162441"
         sodipodi:rx="17.172594"
         sodipodi:cy="483.6463"
         sodipodi:cx="249.00259"
         id="path3862"
         style="fill:#cccccc;fill-opacity:1;fill-rule:nonzero;stroke:#000000;stroke-opacity:1"
         sodipodi:type="arc" />
      <path
         transform="matrix(0.60024232,0,0,0.57525746,145.50264,263.50894)"
         d="m 266.17519,483.6463 c 0,8.92627 -7.68843,16.16244 -17.1726,16.16244 -9.48416,0 -17.17259,-7.23617 -17.17259,-16.16244 0,-8.92627 7.68843,-16.16244 17.17259,-16.16244 9.48417,0 17.1726,7.23617 17.1726,16.16244 z"
         sodipodi:ry="16.162441"
         sodipodi:rx="17.172594"
         sodipodi:cy="483.6463"
         sodipodi:cx="249.00259"
         id="path3862-6"
         style="fill:#e6e6e6;fill-opacity:1;fill-rule:nonzero;stroke:none"
         sodipodi:type="arc" />
      <path
         transform="matrix(0.39435998,0,0,0.35650747,194.45171,366.60261)"
         d="m 266.17519,483.6463 c 0,8.92627 -7.68843,16.16244 -17.1726,16.16244 -9.48416,0 -17.17259,-7.23617 -17.17259,-16.16244 0,-8.92627 7.68843,-16.16244 17.17259,-16.16244 9.48417,0 17.1726,7.23617 17.1726,16.16244 z"
         sodipodi:ry="16.162441"
         sodipodi:rx="17.172594"
         sodipodi:cy="483.6463"
         sodipodi:cx="249.00259"
         id="path3862-1"
         style="fill:#ececec;fill-opacity:1;fill-rule:nonzero;stroke:none"
         sodipodi:type="arc" />
    </g>
  </g>
</svg>
